<svg xmlns="http://www.w3.org/2000/svg"  viewBox="0 0 64 64" width="30x" height="30px" fill-rule="evenodd" clip-rule="evenodd"><radialGradient id="oQvT10mXaBd4SwX~OT1ska" cx="32" cy="1082" r="31.016" gradientTransform="translate(0 -1050)" gradientUnits="userSpaceOnUse"><stop offset="0" stop-color="#f4e9c3"/><stop offset=".219" stop-color="#f8eecd"/><stop offset=".644" stop-color="#fdf4dc"/><stop offset="1" stop-color="#fff6e1"/></radialGradient><path fill="url(#oQvT10mXaBd4SwX~OT1ska)" d="M58,54c-1.215,0-2.176-1.082-1.973-2.335C56.187,50.681,57.11,50,58.106,50h2.279	c1.67,0,3.195-1.122,3.537-2.757C64.392,44.998,62.668,43,60.5,43H50.142c-1.308,0-2.499-0.941-2.629-2.243	C47.363,39.261,48.534,38,50,38h7.869c1.451,0,2.789-0.972,3.071-2.395C61.319,33.693,59.848,32,58,32h-5v-6h7.5	c1.933,0,3.5-1.567,3.5-3.5l0,0c0-1.933-1.567-3.5-3.5-3.5H59c-1.105,0-2-0.895-2-2l0,0c0-1.105,0.895-2,2-2l0,0	c1.105,0,2-0.895,2-2l0,0c0-1.105-0.895-2-2-2h-9.5C48.119,11,47,9.881,47,8.5l0,0C47,7.119,48.119,7,49.5,7h2.857	c1.308,0,2.5-0.941,2.63-2.243C55.136,3.26,53.966,2,52.5,2H12.643c-1.308,0-2.5,0.942-2.63,2.243C9.864,5.74,11.034,7,12.5,7H13	c1.657,0,3,0.343,3,2l0,0c0,1.657-1.343,3-3,3H6.19c-2.086,0-3.959,1.514-4.169,3.59C1.78,17.972,3.665,20,6,20h6v5H5.19	c-2.086,0-3.959,1.514-4.169,3.59C0.78,30.972,2.665,33,5,33h14v5H3.131c-1.451,0-2.789,0.972-3.071,2.395	C-0.319,42.307,1.152,44,3,44h7c2.209,0,4,1.791,4,4l0,0c0,2.209-1.791,4-4,4H5c-2.761,0-5,2.239-5,5l0,0c0,2.761,2.239,5,5,5h52.81	c2.086,0,3.959-1.514,4.169-3.59C62.22,56.028,60.335,54,58,54z"/><linearGradient id="oQvT10mXaBd4SwX~OT1skb" x1="32" x2="32" y1="60" y2="7.003" gradientTransform="matrix(1 0 0 -1 0 66)" gradientUnits="userSpaceOnUse"><stop offset="0" stop-color="#5e6d7b"/><stop offset="1" stop-color="#515c69"/></linearGradient><path fill="url(#oQvT10mXaBd4SwX~OT1skb)" fill-rule="evenodd" d="M53.145,50.516l-19.983,8.248	c-0.755,0.312-1.603,0.311-2.358-0.001l-19.949-8.246C9.732,50.053,9,48.958,9,47.744V9c0-1.657,1.343-3,3-3h40c1.657,0,3,1.343,3,3	v38.743C55,48.957,54.267,50.052,53.145,50.516z" clip-rule="evenodd"/><path fill="#fff" fill-rule="evenodd" d="M43.134,43.242c0.3-0.369,0.616-0.734,0.916-1.102	c0.64,0.497,1.481,0.865,2.301,0.695c0.293-0.028,0.478-0.357,0.345-0.619c-0.137-0.198-0.402-0.272-0.621-0.339	c-0.63-0.186-1.312-0.27-1.882-0.619c-1.384-0.813-0.821-2.916,0.656-3.264c1.139-0.294,2.431-0.05,3.351,0.695	c-0.273,0.387-0.541,0.783-0.814,1.17c-0.518-0.368-1.143-0.63-1.789-0.61c-0.363-0.004-0.72,0.354-0.462,0.695	c0.178,0.179,0.453,0.236,0.689,0.305c1.013,0.259,2.464,0.528,2.545,1.814C48.555,44.834,44.589,44.675,43.134,43.242z M39.25,42.625v-1h2.875v-1.25H39.25v-1h3.25V38h-4.875v6H42.5v-1.375H39.25z M31.708,38h-1.709v6h1.626v-3.5l1.5,2.375L34.75,40.5	V44h1.625v-6h-1.708l-1.484,2.361L31.708,38z M22.555,44l2.603-6h1.554l2.604,6h-1.73l-0.462-1.121h-2.41L24.252,44H22.555z M25.209,41.618h1.419l-0.706-1.739L25.209,41.618z M22,40.625h-2.75v1.25h1.125v0.731c-0.134,0.084-0.458,0.248-0.969,0.248	c-0.998,0-1.714-0.788-1.714-1.761c0-0.972,0.736-1.761,1.644-1.761s1.463,0.598,1.463,0.598l0.989-1.178	c0,0-0.796-0.877-2.601-0.877c-1.76,0-3.188,1.427-3.188,3.188c0,1.919,1.427,3.188,3.188,3.188c1.889,0,2.812-0.953,2.812-0.953	v-2.673H22z" clip-rule="evenodd"/><path fill="#fff" d="M16,13h7v3h-4v5.5h3.5v3H19V30h4v3h-7V13z M33,17v5c0,2.206-1.794,4-4,4h-1.5v7h-3V13H29	C31.206,13,33,14.794,33,17z M30,17c0-0.551-0.449-1-1-1h-1.5v7H29c0.551,0,1-0.449,1-1V17z M48,20.5v-4.25c0-1.93-1.57-3.5-3.5-3.5	h-2c-1.93,0-3.5,1.57-3.5,3.5v13.5c0,1.93,1.57,3.5,3.5,3.5h2c1.93,0,3.5-1.57,3.5-3.5V25h-3v4.75c0,0.276-0.224,0.5-0.5,0.5h-2	c-0.276,0-0.5-0.224-0.5-0.5v-13.5c0-0.276,0.224-0.5,0.5-0.5h2c0.276,0,0.5,0.224,0.5,0.5v4.25H48z M34.5,33.008h3v-20h-3V33.008z"/><polygon fill="#fff" points="23,52 31.993,54.717 41,52"/></svg>